<svg width="23" height="24" viewBox="0 0 23 24" fill="none" xmlns="http://www.w3.org/2000/svg">
<g id="Group 159">
<g id="vuesax/linear/group">
<g id="group">
<path id="Vector" d="M14.3081 2.85217V12.3579C14.3081 13.4035 13.4526 14.259 12.407 14.259H1.95068V6.65445C1.95068 4.55369 3.6522 2.85217 5.75296 2.85217H14.3081Z" stroke="#A92D94" stroke-width="1.42586" stroke-linecap="round" stroke-linejoin="round"/>
<path id="Vector_2" d="M20.9621 14.2591V17.1108C20.9621 18.6887 19.6883 19.9625 18.1104 19.9625H17.1598C17.1598 18.9168 16.3043 18.0613 15.2587 18.0613C14.213 18.0613 13.3575 18.9168 13.3575 19.9625H9.55525C9.55525 18.9168 8.69973 18.0613 7.65411 18.0613C6.60848 18.0613 5.75296 18.9168 5.75296 19.9625H4.80239C3.22445 19.9625 1.95068 18.6887 1.95068 17.1108V14.2591H12.407C13.4526 14.2591 14.3081 13.4035 14.3081 12.3579V5.70392H16.0571C16.7416 5.70392 17.3689 6.07465 17.7111 6.664L19.3366 9.5062H18.1104C17.5876 9.5062 17.1598 9.93396 17.1598 10.4568V13.3085C17.1598 13.8313 17.5876 14.2591 18.1104 14.2591H20.9621Z" fill="#2C3B84" stroke="#2C3B84" stroke-width="1.42586" stroke-linecap="round" stroke-linejoin="round"/>
<path id="Vector_3" d="M7.65407 21.8636C8.70404 21.8636 9.55521 21.0125 9.55521 19.9625C9.55521 18.9125 8.70404 18.0613 7.65407 18.0613C6.6041 18.0613 5.75293 18.9125 5.75293 19.9625C5.75293 21.0125 6.6041 21.8636 7.65407 21.8636Z" stroke="#2C3B84" stroke-width="1.42586" stroke-linecap="round" stroke-linejoin="round"/>
<path id="Vector_4" d="M15.2586 21.8636C16.3085 21.8636 17.1597 21.0125 17.1597 19.9625C17.1597 18.9125 16.3085 18.0613 15.2586 18.0613C14.2086 18.0613 13.3574 18.9125 13.3574 19.9625C13.3574 21.0125 14.2086 21.8636 15.2586 21.8636Z" stroke="#2C3B84" stroke-width="1.42586" stroke-linecap="round" stroke-linejoin="round"/>
<path id="Vector_5" d="M20.9619 12.3579V14.259H18.1102C17.5874 14.259 17.1597 13.8313 17.1597 13.3084V10.4567C17.1597 9.93392 17.5874 9.50616 18.1102 9.50616H19.3365L20.9619 12.3579Z" stroke="#2C3B84" stroke-width="1.42586" stroke-linecap="round" stroke-linejoin="round"/>
</g>
</g>
</g>
</svg>
