<svg width="34" height="34" viewBox="0 0 34 34" fill="none" xmlns="http://www.w3.org/2000/svg">
<g id="vuesax">
<g id="vuesax/bulk/mobile">
<g id="mobile">
<path id="Vector" opacity="0.4" d="M23.1779 2.849H11.4225C7.59645 2.849 6.21021 4.23525 6.21021 8.13061V25.2924C6.21021 29.1877 7.59645 30.574 11.4225 30.574H23.164C27.0039 30.574 28.3902 29.1877 28.3902 25.2924V8.13061C28.3902 4.23525 27.0039 2.849 23.1779 2.849Z" fill="white"/>
<path id="Vector_2" d="M20.0727 8.74057H14.5277C13.9594 8.74057 13.488 8.26924 13.488 7.70088C13.488 7.13252 13.9594 6.66119 14.5277 6.66119H20.0727C20.6411 6.66119 21.1124 7.13252 21.1124 7.70088C21.1124 8.26924 20.6411 8.74057 20.0727 8.74057Z" fill="white"/>
<path id="Vector_3" d="M17.3004 26.8311C18.6403 26.8311 19.7264 25.745 19.7264 24.4052C19.7264 23.0653 18.6403 21.9792 17.3004 21.9792C15.9606 21.9792 14.8745 23.0653 14.8745 24.4052C14.8745 25.745 15.9606 26.8311 17.3004 26.8311Z" fill="white"/>
</g>
</g>
</g>
</svg>
