<svg width="123" height="132" viewBox="0 0 123 132" fill="none" xmlns="http://www.w3.org/2000/svg">
<g id="_x31_77_1_">
<g id="Group">
<g id="Group_2">
<g id="Group_3">
<g id="Group_4">
<g id="Group_5">
<g id="Group_6">
<path id="Vector" d="M93.8797 11.7354L6.97042 62.04L0.0273438 57.973L86.9367 7.66846L93.8797 11.7354Z" fill="#DEDFFB"/>
</g>
</g>
<g id="Group_7">
<g id="Group_8">
<path id="Vector_2" d="M94.0702 78.1713C94.0702 80.6551 92.3549 83.6848 90.1767 84.9404L11.0544 130.741C9.96526 131.369 9.01237 131.424 8.30444 130.987C8.22268 130.96 8.14108 130.905 8.08657 130.851L1.36136 126.975C0.653593 126.538 0.217864 125.664 0.217864 124.436L0 58.0003L6.97033 62.0399L93.8796 11.7354L94.0702 78.1713Z" fill="#DEDFFB"/>
</g>
</g>
</g>
<g id="Group_9">
<g id="Group_10">
<g id="Group_11">
<path id="Vector_3" d="M8.30472 131.001L1.35243 126.962C0.641438 126.526 0.20698 125.655 0.20698 124.427L0.00952148 57.9961L6.96157 62.0353L7.15927 128.466C7.15927 129.734 7.59373 130.605 8.30472 131.001Z" fill="#DEDFFB"/>
</g>
</g>
<g id="Group_12">
<g id="Group_13">
<path id="Vector_4" d="M6.97744 62.0336L0.017334 57.9787L86.9265 7.67688L93.8866 11.7317L6.97744 62.0336Z" fill="#F3F1FC"/>
</g>
</g>
<g id="Group_14">
<g id="Group_15">
<path id="Vector_5" d="M93.8872 11.7317L94.0616 78.1838C94.0686 80.6533 92.3594 83.6795 90.1904 84.9349L11.0492 130.741C8.90539 131.982 7.15943 130.955 7.15245 128.486L6.97803 62.0335L93.8872 11.7317Z" fill="#F3F1FC"/>
</g>
</g>
</g>
<g id="Group_16">
<g id="Group_17">
<g id="Group_18">
<path id="Vector_6" d="M93.9068 7.12263V11.681L6.97033 62.0127L0.0272538 57.9458L0 53.3876C0 50.931 1.74258 47.874 3.89364 46.6185L83.016 0.844821C84.1049 0.189769 85.0851 0.135125 85.793 0.571938L92.5998 4.52957C93.3895 4.91174 93.8796 5.81252 93.9068 7.12263V7.12263Z" fill="#1D2943"/>
</g>
</g>
</g>
<g id="Group_19">
<g id="Group_20">
<path id="Vector_7" d="M85.7966 0.559252C85.0875 0.146191 84.1057 0.20154 83.0174 0.831645L3.90152 46.6229C1.73261 47.8783 -0.001848 50.9191 0.00490245 53.3885L0.0179218 57.9498L6.97793 62.0047L6.96515 57.4434C6.95815 54.974 8.69261 51.933 10.8615 50.6776L89.9777 4.88636C91.066 4.25649 92.0477 4.20115 92.7568 4.61421L85.7966 0.559252Z" fill="#1D2943"/>
</g>
<g id="Group_21">
<g id="Group_22">
<path id="Vector_8" d="M89.9776 4.8863C92.1466 3.63092 93.8925 4.65737 93.8995 7.12685L93.9124 11.6881L6.97801 62.0046L6.96511 57.4433C6.95813 54.9738 8.69258 51.933 10.8616 50.6776L89.9776 4.8863Z" fill="#4C5C75"/>
</g>
</g>
</g>
</g>
<g id="Group_23">
<g id="Group_24">
<g id="Group_25">
<path id="Vector_9" d="M13.2822 52.1463C14.4171 51.4894 15.328 52.0098 15.3317 53.3172C15.3355 54.6536 14.4305 56.225 13.2956 56.8818C12.1607 57.5387 11.2499 57.0183 11.2461 55.6819C11.2424 54.3745 12.1473 52.8032 13.2822 52.1463Z" fill="white"/>
</g>
</g>
<g id="Group_26">
<g id="Group_27">
<path id="Vector_10" d="M20.9242 47.7233C22.0591 47.0665 22.9951 47.5723 22.9988 48.8796C23.0026 50.216 22.0725 51.802 20.9375 52.4589C19.8026 53.1157 18.8917 52.5953 18.888 51.2589C18.8843 49.9516 19.7892 48.3802 20.9242 47.7233V47.7233Z" fill="white"/>
</g>
</g>
<g id="Group_28">
<g id="Group_29">
<path id="Vector_11" d="M28.591 43.2859C29.7007 42.6436 30.6368 43.1494 30.6405 44.4568C30.6443 45.7932 29.7141 47.3792 28.6044 48.0214C27.4442 48.6929 26.5333 48.1725 26.5296 46.8361C26.5259 45.5288 27.4308 43.9574 28.591 43.2859Z" fill="white"/>
</g>
</g>
<g id="Group_30">
<g id="Group_31">
<path id="Vector_12" d="M88.0368 9.40333C88.8943 8.90703 89.6279 9.29714 89.6308 10.314C89.6337 11.3308 88.9047 12.5966 88.0472 13.0929L51.4777 34.2588C50.5698 34.7843 49.8613 34.3505 49.8584 33.3337C49.8555 32.3169 50.5594 31.0948 51.4673 30.5693L88.0368 9.40333Z" fill="white"/>
</g>
</g>
</g>
</g>
<g id="Group_32">
<g id="Group_33">
<g id="Group_34">
<g id="Group_35">
<path id="Vector_13" d="M89.8722 19.0276L90.0179 78.3345L11.1666 123.973L11.021 64.6656L89.8722 19.0276Z" fill="white"/>
</g>
</g>
</g>
<g id="Group_36">
<g id="Group_37">
<g id="Group_38">
<path id="Vector_14" d="M87.3141 77.1335L13.803 119.684L13.7446 95.6378C13.7446 95.6378 13.8909 95.2858 14.0664 95.1979C14.3295 95.0513 14.6222 95.4325 14.505 98.1304C14.505 98.4236 14.7391 103.995 16.0848 103.204C16.2017 103.145 16.3188 103.028 16.4651 102.881C16.4944 102.822 16.9037 102.559 16.9623 100.828C16.9623 99.4207 17.6351 96.4001 18.3373 95.9897C18.5712 95.8723 18.7759 95.9897 18.9514 96.4882L20.0631 102.207C20.18 102.207 22.2277 102.089 22.3739 103.555C22.5203 104.846 23.1345 106.429 23.8365 106.019C23.9537 105.96 24.0706 105.814 24.2168 105.638C25.0653 104.259 25.387 102.265 25.4456 100.418C25.4747 99.1567 25.7087 98.6289 26.4986 98.1891C26.8203 97.9838 27.2885 97.7785 27.9027 97.5439C28.0489 97.4851 28.166 97.4266 28.2829 97.3679C29.7748 96.4882 29.336 94.6701 29.2483 93.9076C29.1898 93.2332 29.5408 87.1041 30.1551 86.7522C30.2721 86.6935 30.3892 86.811 30.5062 87.1922C31.1496 89.1569 31.3251 90.9457 31.7347 90.7111C31.8225 90.6525 31.9395 90.5059 32.0564 90.1832C32.1736 89.9194 32.2612 89.7728 32.3783 89.7141C32.9634 89.3916 33.4314 91.2391 33.519 92.0014C33.6362 92.9398 34.4551 96.8401 35.6839 96.4295C36.9417 96.0483 38.1117 97.3386 38.7553 98.1598C39.0185 98.4823 39.2526 98.5116 39.4574 98.3942C39.7791 98.1891 40.1008 97.6611 40.452 97.3092C40.5104 97.2507 40.569 97.192 40.6566 97.1626C40.8614 97.0454 41.154 97.016 41.4172 96.9867C41.6806 96.9573 41.9437 96.928 42.2071 96.8107C42.324 96.7229 42.4704 96.6054 42.5874 96.4295C43.1139 95.6085 42.5288 93.497 44.8982 92.1188C45.0737 92.0307 45.2493 91.9135 45.454 91.8254C45.6003 91.7669 45.7467 91.7082 45.8636 91.6201C46.9752 90.9751 47.531 89.9779 47.9113 89.0689C48.2623 88.1598 48.4964 87.3388 48.9644 87.0748C49.0813 86.9869 49.2568 86.9575 49.4616 86.9869C50.6025 87.2214 52.3868 88.1304 53.7325 87.3388C54.2883 87.0163 54.7855 86.4004 55.1073 85.3154C55.985 82.3241 57.9156 72.5882 59.6415 71.5912C60.0509 71.3566 60.4312 71.5912 60.8115 72.5297C62.3034 76.4298 62.7714 82.5881 64.5559 81.5323C65.0239 81.2685 65.6089 80.5941 66.311 79.157C66.3695 79.1278 66.3988 79.1278 66.4572 79.0984C66.6036 79.0397 66.7498 78.9519 66.8668 78.8931C67.9784 78.2479 68.5049 77.251 68.8852 76.3419C69.2655 75.4328 69.4995 74.6116 69.9382 74.3184C70.0844 74.2597 70.2601 74.2304 70.4647 74.2597C71.6056 74.465 73.39 75.3741 74.7356 74.6116C75.2914 74.2891 75.7887 73.644 76.0813 72.5588C76.9881 69.5678 78.9187 59.8318 80.6447 58.8347C81.0541 58.6002 81.4344 58.8641 81.7854 59.7731C83.3066 63.7028 83.7747 69.8316 85.5298 68.8053C86.027 68.5413 86.5828 67.7497 87.2848 66.3128L87.3141 77.1335Z" fill="#FFD06C"/>
</g>
</g>
</g>
<g id="Group_39">
<g id="Group_40">
<g id="Group_41">
<path id="Vector_15" d="M25.9694 60.4935C32.1454 56.9189 37.1647 59.641 37.1842 66.5516C37.2038 73.4679 32.2163 81.982 26.0454 85.5536C24.9234 86.203 23.8463 86.634 22.8245 86.8814L24.4944 81.3139C24.9901 81.1552 25.5007 80.9355 26.0315 80.6283C29.7764 78.4608 32.8043 73.3028 32.7924 69.0936C32.7805 64.8902 29.7334 63.2482 25.9884 65.4157L25.9694 60.4935Z" fill="#8FABFE"/>
</g>
</g>
</g>
<g id="Group_42">
<g id="Group_43">
<g id="Group_44">
<path id="Vector_16" d="M25.9693 60.4937L25.9833 65.4188C22.2383 67.5863 19.2104 72.7444 19.2223 76.9478C19.2325 80.5631 21.485 82.2743 24.4943 81.314L22.8244 86.8815C18.2158 87.9919 14.8464 85.1487 14.8304 79.4898C14.8108 72.5792 19.8035 64.0624 25.9693 60.4937V60.4937Z" fill="#F45170"/>
</g>
</g>
</g>
</g>
<g id="Group_45">
<g id="Group_46">
<g id="Group_47">
<g id="Group_48">
<path id="Vector_17" d="M75.4815 53.5443L75.496 58.6728L71.7181 60.8594L71.7036 55.7309L75.4815 53.5443Z" fill="#DBA660"/>
</g>
</g>
</g>
<g id="Group_49">
<g id="Group_50">
<g id="Group_51">
<path id="Vector_18" d="M63.0264 62.7959L63.0352 65.8849L59.2573 68.0715L59.2485 64.9825L63.0264 62.7959Z" fill="#FFD06C"/>
</g>
</g>
</g>
<g id="Group_52">
<g id="Group_53">
<g id="Group_54">
<path id="Vector_19" d="M50.5652 67.9655L50.5797 73.0939L46.7967 75.2835L46.7822 70.155L50.5652 67.9655Z" fill="#57B3FE"/>
</g>
</g>
</g>
<g id="Group_55">
<g id="Group_56">
<g id="Group_57">
<path id="Vector_20" d="M50.5413 59.505L50.5652 67.9656L46.7822 70.1552L46.7583 61.6946L50.5413 59.505Z" fill="#E9E7FC"/>
</g>
</g>
</g>
<g id="Group_58">
<g id="Group_59">
<g id="Group_60">
<path id="Vector_21" d="M56.7855 61.7285L56.8074 69.4895L53.0295 71.6761L53.0076 63.9151L56.7855 61.7285Z" fill="#B28AFD"/>
</g>
</g>
</g>
<g id="Group_61">
<g id="Group_62">
<g id="Group_63">
<path id="Vector_22" d="M56.7493 44.0021L56.7855 61.7285L53.0076 63.9151L52.9663 46.1916L56.7493 44.0021Z" fill="#E9E7FC"/>
</g>
</g>
</g>
<g id="Group_64">
<g id="Group_65">
<g id="Group_66">
<path id="Vector_23" d="M87.886 24.219L87.9301 42.0159L84.1471 44.2054L84.103 26.4085L87.886 24.219Z" fill="#E9E7FC"/>
</g>
</g>
</g>
<g id="Group_67">
<g id="Group_68">
<g id="Group_69">
<path id="Vector_24" d="M87.9302 42.0159L87.9569 51.4606L84.1739 53.6502L84.1472 44.2054L87.9302 42.0159Z" fill="#F45170"/>
</g>
</g>
</g>
<g id="Group_70">
<g id="Group_71">
<g id="Group_72">
<path id="Vector_25" d="M81.7075 49.2697L81.7291 55.0652L77.9461 57.2547L77.9297 51.4562L81.7075 49.2697Z" fill="#78E75A"/>
</g>
</g>
</g>
<g id="Group_73">
<g id="Group_74">
<g id="Group_75">
<path id="Vector_26" d="M81.6804 34.7805L81.7075 49.2697L77.9296 51.4563L77.9026 36.9671L81.6804 34.7805Z" fill="#E9E7FC"/>
</g>
</g>
</g>
<g id="Group_76">
<g id="Group_77">
<g id="Group_78">
<path id="Vector_27" d="M75.4576 40.1637L75.4815 53.5443L71.7037 55.7308L71.6746 42.3532L75.4576 40.1637Z" fill="#E9E7FC"/>
</g>
</g>
</g>
<g id="Group_79">
<g id="Group_80">
<g id="Group_81">
<path id="Vector_28" d="M69.2178 39.5055L69.2493 55.5422L65.4663 57.7318L65.4348 41.695L69.2178 39.5055Z" fill="#E9E7FC"/>
</g>
</g>
</g>
<g id="Group_82">
<g id="Group_83">
<g id="Group_84">
<path id="Vector_29" d="M69.2491 55.5422L69.2681 62.2775L65.4851 64.467L65.4661 57.7318L69.2491 55.5422Z" fill="#8FABFE"/>
</g>
</g>
</g>
<g id="Group_85">
<g id="Group_86">
<g id="Group_87">
<path id="Vector_30" d="M63.012 52.7712L63.0265 62.796L59.2486 64.9826L59.2341 54.9578L63.012 52.7712Z" fill="#E9E7FC"/>
</g>
</g>
</g>
</g>
</g>
<g id="Group_88">
<g id="Group_89">
<g id="Group_90">
<g id="Group_91">
<g id="Group_92">
<path id="Vector_31" d="M121.297 62.3677C121.161 62.2859 121.025 62.2039 120.862 62.1768C120.971 62.2039 121.052 62.2312 121.161 62.2859C121.216 62.3132 121.243 62.3405 121.297 62.3677Z" fill="#57B3FE"/>
</g>
<g id="Group_93">
<g id="Group_94">
<path id="Vector_32" d="M121.297 62.3677C121.161 62.2859 121.025 62.2039 120.862 62.1768C120.971 62.2039 121.052 62.2312 121.161 62.2859C121.216 62.3132 121.243 62.3405 121.297 62.3677Z" fill="#57B3FE"/>
</g>
</g>
</g>
</g>
</g>
<g id="Group_95">
<g id="Group_96">
<g id="Group_97">
<g id="Group_98">
<path id="Vector_33" d="M122.904 95.9677C122.931 99.1614 120.644 103.092 117.839 104.729L73.1051 130.632C71.7165 131.424 70.4369 131.506 69.5111 130.96L64.1745 127.848C63.2489 127.33 62.6771 126.211 62.6771 124.627L62.5955 94.2483C62.5955 91.0547 64.8552 87.1242 67.6324 85.5139L112.367 59.611C113.783 58.792 115.089 58.7376 116.015 59.2562L121.161 62.2859C121.052 62.2312 120.971 62.2039 120.862 62.1767C121.025 62.2039 121.161 62.2859 121.297 62.3677C122.25 62.8591 122.822 64.0055 122.822 65.5886L122.904 95.9677Z" fill="#57B3FE"/>
</g>
</g>
</g>
</g>
</g>
<g id="Group_99">
<g id="Group_100">
<g id="Group_101">
<g id="Group_102">
<g id="Group_103">
<path id="Vector_34" d="M116.005 59.2653C115.079 58.7255 113.792 58.7989 112.371 59.6211L67.6233 85.521C64.8606 87.1199 62.5896 91.0628 62.5989 94.2452L62.6846 124.621C62.6893 126.201 63.2555 127.319 64.1628 127.848L69.5138 130.965C68.6061 130.436 68.0398 129.319 68.0352 127.738L67.9495 97.3627C67.9407 94.1802 70.2112 90.2373 72.9743 88.6379L117.722 62.7385C119.143 61.9163 120.43 61.8429 121.356 62.3827L116.005 59.2653Z" fill="#5094FF"/>
</g>
<g id="Group_104">
<g id="Group_105">
<path id="Vector_35" d="M117.722 62.7385C120.533 61.1113 122.819 62.417 122.828 65.5997L122.914 95.9747C122.923 99.1573 120.652 103.1 117.841 104.727L73.0929 130.627C70.33 132.226 68.0444 130.92 68.0354 127.738L67.9495 97.3627C67.9405 94.18 70.2113 90.2371 72.9742 88.638L117.722 62.7385Z" fill="#57B3FE"/>
</g>
<g id="Group_106">
<path id="Vector_36" d="M70.8518 129.229C70.2112 129.229 70.1139 128.292 70.1118 127.731L70.0247 97.3562C70.0186 94.9052 71.8817 91.6738 74.0123 90.4402L118.76 64.5403C119.395 64.1724 119.819 64.1176 120.013 64.1176C120.652 64.1176 120.749 65.0484 120.751 65.6052L120.838 95.9803C120.845 98.4313 118.959 101.677 116.802 102.925L72.054 128.825C71.4458 129.176 71.0403 129.229 70.8518 129.229V129.229Z" fill="white"/>
</g>
</g>
</g>
</g>
<g id="Group_107">
<g id="Group_108">
<g id="Group_109">
<path id="Vector_37" d="M94.8516 87.3258L117.947 73.9582L117.939 70.8655L94.8516 84.228V87.3258Z" fill="#E3E7F0"/>
</g>
</g>
<g id="Group_110">
<g id="Group_111">
<path id="Vector_38" d="M94.8516 94.354L117.967 80.9751L117.958 77.8823L94.8516 91.2562V94.354Z" fill="#E3E7F0"/>
</g>
</g>
<g id="Group_112">
<g id="Group_113">
<path id="Vector_39" d="M94.8516 108.41L107.753 100.943L107.745 97.8499L94.8516 105.312V108.41Z" fill="#E3E7F0"/>
</g>
</g>
<g id="Group_114">
<g id="Group_115">
<path id="Vector_40" d="M94.8516 101.382L117.987 87.9912L117.978 84.8984L94.8516 98.284V101.382Z" fill="#E3E7F0"/>
</g>
</g>
</g>
</g>
<g id="Group_116">
<g id="Group_117">
<g id="Group_118">
<g id="Group_119">
<path id="Vector_41" d="M82.9373 104.608L91.5421 99.6345C91.3464 105.134 87.5083 111.648 82.8075 114.373C80.5951 115.654 78.506 115.919 76.8748 115.137L82.9373 104.608Z" fill="#78E75A"/>
</g>
</g>
</g>
<g id="Group_120">
<g id="Group_121">
<g id="Group_122">
<path id="Vector_42" d="M83.1296 93.9446C85.3268 92.7791 87.3892 92.6241 88.9613 93.5222C90.539 94.4219 91.4459 96.2619 91.5395 98.7474L83.1569 103.599L83.1296 93.9446Z" fill="#DF3260"/>
</g>
</g>
</g>
<g id="Group_123">
<g id="Group_124">
<g id="Group_125">
<path id="Vector_43" d="M82.3654 94.3805L82.3934 104.297L76.3309 114.826C74.845 113.816 74.0201 111.884 74.0128 109.311C73.9918 103.9 77.7091 97.3058 82.3654 94.3805Z" fill="#986FF9"/>
</g>
</g>
</g>
</g>
</g>
</g>
</svg>
