<svg width="114" height="115" viewBox="0 0 114 115" fill="none" xmlns="http://www.w3.org/2000/svg">
<g id="dashboard 1" clip-path="url(#clip0_3502_1632)">
<g id="Group 69252">
<g id="_x35_8">
<g id="Group">
<g id="Group_2">
<path id="Vector" d="M73.8823 89.42V92.8849L51.398 105.933L39.8486 99.2227C36.7526 97.4245 34.2276 93.0824 34.2494 89.5078L34.2714 80.5383L37.2795 82.2709L59.7638 69.2006L59.7418 78.1918C59.7418 79.8585 60.9055 81.898 62.3547 82.7094L73.8823 89.42Z" fill="#4C5C75"/>
</g>
<g id="Group_3">
<path id="Vector_2" d="M51.4005 102.477L73.891 89.4227L73.8812 92.8832L51.3906 105.937L51.4005 102.477Z" fill="#1D2943"/>
</g>
<g id="Group_4">
<path id="Vector_3" d="M73.8883 89.4306L51.402 102.477L39.8769 95.7659C38.4303 94.9373 37.2603 92.9188 37.2603 91.2403L37.2814 82.2739L59.7677 69.2067L59.7465 78.1945C59.7465 79.8518 60.9167 81.8914 62.3632 82.7201L73.8883 89.4306Z" fill="#4C5C75"/>
</g>
<g id="Group_5">
<path id="Vector_4" d="M37.2809 82.266L37.2554 91.2447C37.2507 92.9126 38.4286 94.9346 39.8684 95.7649L51.4004 102.477L51.3905 105.937L39.8585 99.2253C36.748 97.4319 34.2299 93.0757 34.24 89.506L34.2657 80.5273L37.2809 82.266Z" fill="#111D33"/>
</g>
<path id="Vector_5" d="M82.1821 53.1917V58.8277C82.1821 61.6566 80.2061 65.0777 77.7467 66.5032L16.8594 101.701C15.4981 102.49 14.2685 102.49 13.4561 101.832C13.5219 101.898 13.6098 101.964 13.6976 102.008L7.06661 98.1482C6.25407 97.7095 5.77107 96.7226 5.77107 95.3191L5.66131 44.1565C5.63933 41.3274 7.63738 37.9064 10.0747 36.481L70.984 1.28323C72.2356 0.55964 73.3334 0.493785 74.1458 0.976315L80.7768 4.81407C80.711 4.79211 80.6671 4.74821 80.6013 4.74821C81.5014 5.14294 82.0724 6.17372 82.0724 7.68689L82.1601 53.1917H82.1821Z" fill="#4C5C75"/>
<path id="Vector_6" d="M5.66489 44.1552C5.64912 41.3377 7.63947 37.9101 10.0841 36.4858L70.9903 1.28709C72.2284 0.567262 73.341 0.504495 74.1559 0.973961L80.7849 4.82466C79.9702 4.3552 78.8573 4.4175 77.6192 5.12205L16.7133 40.3362C14.2686 41.7449 12.2783 45.1884 12.2938 48.0057L12.388 99.1596C12.4035 100.568 12.8893 101.539 13.6887 102.008L7.0595 98.1581C6.26039 97.7039 5.77457 96.718 5.77457 95.3249L5.66489 44.1552Z" fill="#4C5C75"/>
<path id="Vector_7" d="M12.3878 99.1593L12.3944 93.5199L5.76196 89.6656L5.77444 95.3246C5.77444 96.7178 6.26002 97.7037 7.05936 98.1579L13.6885 102.008C12.8892 101.538 12.4034 100.568 12.3878 99.1593Z" fill="#B0B8CF"/>
<path id="Vector_8" d="M77.6202 5.1293C80.0717 3.71573 82.0693 4.85284 82.0773 7.67763L82.1827 58.833C82.1907 61.6462 80.206 65.0794 77.7548 66.493L16.8514 101.701C14.3999 103.114 12.4023 101.977 12.3943 99.1638L12.2888 48.0085C12.2808 45.1837 14.2655 41.7505 16.717 40.3369L77.6202 5.1293Z" fill="#1D2943"/>
<path id="Vector_9" d="M82.1825 53.1887V58.8329C82.1905 61.6462 80.2058 65.0794 77.7545 66.4929L16.8511 101.701C14.3997 103.114 12.402 101.977 12.394 99.1637L12.3943 93.5198L82.1825 53.1887Z" fill="#E3E7F0"/>
<path id="Vector_10" d="M48.8102 75.1425C50.0681 74.417 51.0844 74.9954 51.0884 76.4393C51.0927 77.8829 50.0829 79.6294 48.825 80.3546C47.5672 81.0801 46.5511 80.5018 46.5469 79.0581C46.5428 77.6142 47.5524 75.8678 48.8102 75.1425Z" fill="#1D2943"/>
<path id="Vector_11" d="M79.9923 52.1095L14.5262 89.9506L14.4612 48.0064C14.4395 45.9557 16.0175 43.2358 17.7896 42.1998L78.6956 6.99238C79.1927 6.71169 79.4952 6.69006 79.6033 6.69006C79.7329 6.73332 79.9059 7.01401 79.9059 7.68307L79.9923 52.1095Z" fill="white"/>
<g id="Group_6">
<g id="Group_7">
<g id="Group_8">
<g id="Group_9">
<path id="Vector_12" d="M46.9421 40.5135L41.1362 43.8611L41.144 46.5847L46.9421 43.2416V40.5135Z" fill="#E3E7F0"/>
<path id="Vector_13" d="M76.9962 23.1831L50.2395 38.612V41.34L76.9962 25.9111V23.1831Z" fill="#E3E7F0"/>
</g>
<g id="Group_10">
<path id="Vector_14" d="M63.6501 45.9226L20.6008 70.7462L20.6083 73.4695L63.6501 48.6503V45.9226Z" fill="#E3E7F0"/>
<path id="Vector_15" d="M67.7693 43.5474V46.275L76.9963 40.9545V38.2268L67.7693 43.5474Z" fill="#A92D94"/>
</g>
<g id="Group_11">
<path id="Vector_16" d="M76.9963 45.6888L20.6221 78.2555L20.6298 80.9791L76.9963 48.4167V45.6888Z" fill="#E3E7F0"/>
</g>
<g id="Group_12">
<path id="Vector_17" d="M76.9961 30.7047L41.1575 51.3705L41.1653 54.0939L76.9961 33.4326V30.7047Z" fill="#E3E7F0"/>
</g>
<g id="Group_13">
<path id="Vector_18" d="M57.3669 26.9803L41.115 36.3518L41.1227 39.0752L57.3669 29.7082V26.9803Z" fill="#E3E7F0"/>
<path id="Vector_19" d="M76.9964 15.6615L60.6367 25.0949V27.8227L76.9964 18.3894V15.6615Z" fill="#F94F72"/>
</g>
</g>
</g>
<g id="Group_14">
<path id="Vector_20" d="M22.408 64.716C19.3197 64.716 17.4691 62.2103 17.4568 58.0126C17.4382 51.2719 22.1981 43.0346 28.0682 39.6498C29.6259 38.7514 31.1526 38.2767 32.4836 38.2767C35.5771 38.2767 37.431 40.7805 37.4432 44.9743C37.4619 51.715 32.6981 59.9549 26.8235 63.3422C25.2652 64.2413 23.7384 64.716 22.408 64.716Z" fill="#2C3B84"/>
<g id="Group_15">
<g id="Group_16">
<path id="Vector_21" d="M31.621 52.6311C31.9536 52.7974 32.2912 52.9608 32.6288 53.1183C32.6893 53.1528 32.6944 53.196 32.6343 53.3C31.6805 54.9714 30.5747 56.3038 29.4906 57.2667C27.8555 58.7174 26.9023 58.9809 25.9239 59.3234C25.9039 59.33 25.886 59.3373 25.8696 59.3468C25.8283 59.3706 25.797 59.408 25.7684 59.4824C25.6799 59.7028 25.3576 60.5034 25.1937 60.8821C24.5469 59.9096 23.9152 58.9572 23.2683 57.9731C24.6097 57.2342 25.9159 56.5157 27.2624 55.7739C27.2073 55.9085 27.4199 55.382 26.7477 57.0409C26.7077 57.1505 26.7129 57.1995 26.8134 57.1474C27.1752 56.9676 27.532 56.8138 27.8937 56.6053C28.9402 55.9894 30.3721 54.6292 31.4302 52.747C31.4817 52.6578 31.5293 52.5859 31.621 52.6311Z" fill="white"/>
</g>
<g id="Group_17">
<path id="Vector_22" d="M28.7562 43.2069C31.2614 42.5211 32.9614 43.6023 33.6291 45.7041C33.6392 45.7214 33.68 45.9115 33.7257 46.0757C34.1929 45.8063 34.7455 45.4934 34.9013 45.4036L34.9165 45.4468C34.2369 47.1264 33.5674 48.7945 32.8678 50.5146C32.226 49.5334 31.5943 48.5752 30.9525 47.6055L32.0376 46.9798C31.9971 46.8704 31.9616 46.7696 31.916 46.6746C31.2283 45.2226 29.905 44.7972 28.3846 45.2287C28.279 45.2607 28.2538 45.2233 28.2735 45.0907C28.3726 44.5427 28.4666 43.9976 28.5607 43.4525C28.5856 43.287 28.6171 43.2472 28.7562 43.2069Z" fill="white"/>
</g>
<g id="Group_18">
<path id="Vector_23" d="M22.3836 47.6267C23.6709 46.955 25.3959 45.9439 26.3476 45.468C25.6581 47.1765 24.9835 48.8533 24.289 50.5646C24.107 50.2884 23.9352 50.0352 23.7533 49.759C22.5475 52.1636 22.2062 54.2488 22.7096 56.0894C22.2127 56.5549 21.7109 57.0233 21.184 57.5177C21.1331 57.3276 21.0773 57.1634 21.0365 56.9848C20.4564 54.2269 21.4994 50.9264 22.9547 48.5101C22.8943 48.5045 22.404 47.6959 22.3836 47.6267Z" fill="white"/>
</g>
</g>
</g>
</g>
</g>
<path id="Vector_24" d="M77.7498 50.7382L95.3067 40.646L77.7498 50.7382Z" fill="#4C5C75"/>
</g>
<g id="_x39_8">
<g id="Group_19">
<path id="Vector_25" d="M105.05 79.509L108.902 83.0102L105.016 85.2585L104.994 92.8648L73.0412 111.422L58.9522 103.29L58.9745 95.6389L55.1443 93.4352L58.9857 89.9229L55.1443 86.4107L87.0967 67.8647L90.9494 71.3771L94.802 67.8647L108.902 75.9968L105.05 79.509Z" fill="#FEBC1F"/>
</g>
<g id="Group_20">
<g id="Group_21">
<g id="Group_22">
<path id="Vector_26" d="M108.897 75.9963L105.045 79.5046L90.9451 71.377L94.7969 67.8688L108.897 75.9963Z" fill="#F9A83D"/>
</g>
<g id="Group_23">
<path id="Vector_27" d="M55.1384 86.4159L58.9903 89.9242L90.9488 71.3772L87.0969 67.8689L55.1384 86.4159Z" fill="#FEBC1F"/>
</g>
</g>
<g id="Group_24">
<path id="Vector_28" d="M60.4814 89.9245L73.0839 97.1941L90.9463 86.8217V72.2344L60.4814 89.9245Z" fill="#FEBC1F"/>
<path id="Vector_29" d="M90.9463 72.2344V86.8217L103.549 79.5037L90.9463 72.2344Z" fill="#F9A83D"/>
</g>
<g id="Group_25">
<path id="Vector_30" d="M90.9452 71.3732L58.9937 89.9266L73.085 98.055L105.037 79.5016L90.9452 71.3732ZM73.0853 97.1974L60.4857 89.9267L90.9486 72.2309L103.548 79.5016L90.9486 86.8171L73.0853 97.1974Z" fill="#FFD06C"/>
</g>
<g id="Group_26">
<path id="Vector_31" d="M100.144 88.3459L88.317 95.1691L77.9686 89.1624L77.9351 76.6345L89.7618 69.8112L100.11 75.8179L100.144 88.3459Z" fill="#BF7D5A"/>
<path id="Vector_32" d="M77.9316 76.6367L88.2777 82.6417L88.3163 95.1639L77.9702 89.1589L77.9316 76.6367Z" fill="#AA6256"/>
<path id="Vector_33" d="M100.11 75.8187L88.2777 82.6419L77.9316 76.6368L89.7643 69.8137L100.11 75.8187Z" fill="#DBA660"/>
<path id="Vector_34" d="M100.11 75.8187L100.149 88.3409L88.3164 95.164L88.2778 82.6418L100.11 75.8187Z" fill="#BF7D5A"/>
<path id="Vector_35" d="M95.8765 78.2563V80.4935L92.5503 82.451V80.1803L82.2019 74.1736L85.5394 72.2496L95.8765 78.2563Z" fill="#1D2943"/>
<path id="Vector_36" d="M82.2002 74.1751L85.535 72.2522L95.881 78.2573L92.5462 80.1802L82.2002 74.1751Z" fill="#4C5C75"/>
<path id="Vector_37" d="M92.5459 80.1801V82.4456L95.8807 80.4968V78.2572L92.5459 80.1801Z" fill="#1D2943"/>
<path id="Vector_38" d="M83.6704 73.3273L84.0645 73.1001L94.4105 79.1052L94.0164 79.3324L83.6704 73.3273Z" fill="#111D33"/>
</g>
<g id="Group_27">
<path id="Vector_39" d="M86.01 96.5454L74.172 103.369L63.8348 97.3619L63.79 84.8451L75.628 78.0219L85.9652 84.0286L86.01 96.5454Z" fill="#BF7D5A"/>
<path id="Vector_40" d="M63.7915 84.8442L74.1376 90.8493L74.1761 103.371L63.8301 97.3664L63.7915 84.8442Z" fill="#AA6256"/>
<path id="Vector_41" d="M85.9707 84.0261L74.1381 90.8493L63.792 84.8442L75.6246 78.0211L85.9707 84.0261Z" fill="#DBA660"/>
<path id="Vector_42" d="M85.9701 84.0261L86.0087 96.5483L74.176 103.371L74.1375 90.8492L85.9701 84.0261Z" fill="#BF7D5A"/>
<path id="Vector_43" d="M81.743 86.4667V88.7038L78.4055 90.6501V88.3906L68.0571 82.3839L71.3946 80.46L81.743 86.4667Z" fill="#1D2943"/>
<path id="Vector_44" d="M68.0598 82.3825L71.3946 80.4596L81.7406 86.4647L78.4058 88.3876L68.0598 82.3825Z" fill="#4C5C75"/>
<path id="Vector_45" d="M78.4058 88.3877V90.6531L81.7405 88.7043V86.4647L78.4058 88.3877Z" fill="#1D2943"/>
<path id="Vector_46" d="M69.5303 81.5346L69.9243 81.3074L80.2703 87.3124L79.8763 87.5397L69.5303 81.5346Z" fill="#111D33"/>
</g>
<path id="Vector_47" d="M73.0853 98.0515L73.044 111.417L58.9492 103.289L58.9904 89.924L73.0853 98.0515Z" fill="#FEBC1F"/>
<path id="Vector_48" d="M73.0853 98.0515L69.2334 101.56L55.1387 93.4322L58.9905 89.924L73.0853 98.0515Z" fill="#F9A83D"/>
<g id="Group_28">
<g id="Group_29">
<g id="Group_30">
<g id="Group_31">
<path id="Vector_49" d="M69.3268 107.36L69.3257 107.743L71.6018 109.056L71.6029 108.672L69.3268 107.36Z" fill="#1D2943"/>
</g>
<g id="Group_32">
<path id="Vector_50" d="M71.0872 106.087L70.5874 106.558L70.93 106.756L70.9264 108.048L71.2446 108.231L71.2482 106.939L71.5827 107.132L71.0872 106.087Z" fill="#1D2943"/>
</g>
<g id="Group_33">
<path id="Vector_51" d="M69.8555 105.376L69.3557 105.848L69.6902 106.041L69.6865 107.333L70.0047 107.516L70.0084 106.224L70.351 106.422L69.8555 105.376Z" fill="#1D2943"/>
</g>
</g>
<g id="Group_34">
<g id="Group_35">
<path id="Vector_52" d="M65.9529 104.391L65.9314 105.398C65.9314 105.591 66.0817 105.848 66.2532 105.955C66.425 106.041 66.5752 105.977 66.5752 105.784C66.5752 105.719 66.5322 105.677 66.5109 105.655C66.4679 105.634 66.4464 105.655 66.4464 105.698C66.4464 105.805 66.3606 105.848 66.2532 105.784C66.146 105.741 66.0817 105.591 66.0817 105.484V104.455L66.9829 104.991C66.9829 104.433 66.6182 103.726 66.146 103.405V103.319C66.146 103.233 66.0817 103.148 66.0172 103.105C65.9529 103.083 65.8885 103.105 65.8885 103.19V103.276C65.6954 103.148 65.4807 103.169 65.3305 103.255C65.1589 103.34 65.0515 103.555 65.0515 103.876L65.9529 104.391Z" fill="#1D2943"/>
</g>
</g>
<g id="Group_36">
<g id="Group_37">
<g id="Group_38">
<path id="Vector_53" d="M71.9128 109.762L68.9202 108.036C68.894 108.02 68.8772 107.992 68.8772 107.962L68.8866 104.53C68.8866 104.5 68.9034 104.471 68.9296 104.456C68.9568 104.441 68.9883 104.441 69.0155 104.456L72.0081 106.181C72.0343 106.197 72.0511 106.225 72.0511 106.256L72.0416 109.687C72.0416 109.718 72.0249 109.746 71.9987 109.762C71.9851 109.769 71.9704 109.773 71.9557 109.773C71.9411 109.773 71.9264 109.769 71.9128 109.762ZM69.0585 104.679L69.049 107.912L71.8698 109.539L71.8792 106.305L69.0585 104.679Z" fill="#1D2943"/>
</g>
</g>
<g id="Group_39">
<g id="Group_40">
<path id="Vector_54" d="M67.4657 107.198L64.4731 105.472C64.4469 105.456 64.4302 105.428 64.4302 105.398L64.4396 101.966C64.4396 101.936 64.4564 101.908 64.4826 101.892C64.5098 101.877 64.5412 101.877 64.5685 101.892L67.5621 103.618C67.5883 103.633 67.6051 103.662 67.6051 103.692L67.5946 107.123C67.5946 107.154 67.5779 107.182 67.5517 107.198C67.538 107.205 67.5234 107.209 67.5087 107.209C67.494 107.209 67.4794 107.205 67.4657 107.198ZM64.6115 102.115L64.602 105.349L67.4238 106.975L67.4333 103.741L64.6115 102.115Z" fill="#1D2943"/>
</g>
</g>
<g id="Group_41">
<g id="Group_42">
<path id="Vector_55" d="M63.019 104.634L60.0264 102.908C60.0002 102.892 59.9834 102.864 59.9834 102.834L59.9939 99.4021C59.9939 99.3717 60.0106 99.3435 60.0368 99.3278C60.0641 99.3131 60.0955 99.3131 60.1228 99.3278L63.1154 101.053C63.1416 101.069 63.1583 101.097 63.1583 101.128L63.1478 104.559C63.1478 104.59 63.1311 104.618 63.1049 104.634C63.0913 104.641 63.0766 104.645 63.0619 104.645C63.0473 104.645 63.0326 104.641 63.019 104.634ZM60.1647 99.5507L60.1552 102.784L62.977 104.411L62.9865 101.177L60.1647 99.5507Z" fill="#1D2943"/>
</g>
</g>
</g>
</g>
<g id="Group_43">
<path id="Vector_56" d="M60.8796 100.345L60.877 101.274C60.8759 101.664 61.1201 102.129 61.4431 102.382L61.4413 103.046L61.2738 102.949C61.2098 102.912 61.1581 102.942 61.1579 103.016C61.1576 103.088 61.2091 103.177 61.273 103.214L61.8568 103.55C61.9201 103.587 61.9719 103.558 61.9721 103.485C61.9723 103.411 61.9209 103.322 61.8576 103.286L61.6905 103.189L61.6923 102.526C61.8334 102.578 61.9599 102.573 62.0567 102.517C62.1827 102.445 62.261 102.291 62.2616 102.073L62.2643 101.144L60.8796 100.345Z" fill="#1D2943"/>
</g>
</g>
<path id="Vector_57" d="M105.04 79.5045L104.999 92.8699L73.0442 111.417L73.0854 98.0515L105.04 79.5045Z" fill="#F9A83D"/>
<path id="Vector_58" d="M73.0854 98.0515L76.9373 101.56L108.897 83.0129L105.045 79.5046L73.0854 98.0515Z" fill="#FEBC1F"/>
<g id="Group_44">
<path id="Vector_59" d="M101.291 77.3414V77.9862H100.922L103.548 79.5018L90.9486 86.8173L73.0853 97.1976L60.4857 89.9269L58.9937 89.9268L73.085 98.0552L105.037 79.5018L101.291 77.3414Z" fill="#FFD06C"/>
</g>
</g>
</g>
</g>
</g>
<defs>
<clipPath id="clip0_3502_1632">
<rect width="113.674" height="113.533" fill="white" transform="translate(0.0966797 0.666626)"/>
</clipPath>
</defs>
</svg>
