<svg width="112" height="115" viewBox="0 0 112 115" fill="none" xmlns="http://www.w3.org/2000/svg">
<g id="id-card">
<g id="_x37_9">
<g id="Group">
<g id="Group_2">
<g id="Group_3">
<g id="Group_4">
<path id="Vector" d="M42.3477 40.8725L53.6722 34.2914L53.6993 35.6176L42.3747 42.1988L42.3477 40.8725Z" fill="#C4C2C0"/>
</g>
<g id="Group_5">
<path id="Vector_2" d="M42.5232 13.3504L53.8478 6.76929C52.9561 9.57824 51.4751 11.864 49.4562 13.5617C47.8442 14.9334 46.842 16.858 46.5272 19.1558C46.1758 21.6982 46.6912 24.7468 47.9473 27.5206C49.2543 30.412 51.4422 33.0054 53.5488 34.2217C53.59 34.2455 53.631 34.2686 53.6721 34.2913L42.3475 40.8725C42.3064 40.8498 42.2654 40.8266 42.2243 40.8028C40.1176 39.5865 37.9297 36.9931 36.6227 34.1018C35.3666 31.328 34.8512 28.2793 35.2027 25.7369C35.5175 23.4391 36.5196 21.5146 38.1317 20.1428C40.1505 18.4451 41.6315 16.1594 42.5232 13.3504Z" fill="#F3F1FC"/>
</g>
<g id="Group_6">
<path id="Vector_3" d="M43.0779 11.6102L54.4024 5.02905L53.8478 6.76925L42.5232 13.3504L43.0779 11.6102Z" fill="#E9E7FC"/>
</g>
<g id="Group_7">
<path id="Vector_4" d="M41.9915 10.5993L53.316 4.01819L54.4024 5.0291L43.0778 11.6102L41.9915 10.5993Z" fill="#F3F1FC"/>
</g>
<g id="Group_8">
<path id="Vector_5" d="M41.9916 10.5994L43.0779 11.6103L42.5232 13.3505C41.6316 16.1594 40.1505 18.4452 38.1317 20.1429C36.5197 21.5146 35.5175 23.4392 35.2027 25.737C34.8513 28.2793 35.3667 31.328 36.6227 34.1018C37.9298 36.9932 40.1177 39.5866 42.2243 40.8029C42.2655 40.8266 42.3065 40.8498 42.3476 40.8725L42.3747 42.1988C42.308 42.1662 42.2413 42.1277 42.1746 42.0892C39.6868 40.6529 37.2188 37.6989 35.687 34.3173C34.2676 31.1835 33.6814 27.7515 34.0748 24.9028C34.421 22.387 35.5059 20.2917 37.2157 18.8406C39.1779 17.1929 40.5867 15.013 41.4369 12.3336L41.9916 10.5994Z" fill="#DEDFFB"/>
</g>
</g>
<g id="Group_9">
<g id="Group_10">
<g id="Group_11">
<g id="Group_12">
<path id="Vector_6" d="M17.3841 113.761L9.35021 109.074C8.74594 108.731 8.37041 107.98 8.37041 106.935L8.23975 61.818L16.2901 66.4881L23.6883 107.458C23.6883 108.52 16.7963 113.401 17.3841 113.761Z" fill="#DEDFFB"/>
</g>
<g id="Group_13">
<path id="Vector_7" d="M16.2849 66.4861L8.24268 61.8125L81.6063 19.4559L89.6486 24.1296L16.2849 66.4861Z" fill="#E9E7FC"/>
</g>
<g id="Group_14">
<path id="Vector_8" d="M89.6488 24.1295L89.7767 69.2516C89.7827 71.3724 88.2881 73.9682 86.4364 75.0373L19.7813 113.521C17.9236 114.593 16.4191 113.729 16.4131 111.608L16.2852 66.4861L89.6488 24.1295Z" fill="#F3F1FC"/>
</g>
</g>
<g id="Group_15">
<g id="Group_16">
<path id="Vector_9" d="M88.6442 14.382C88.0399 14.0228 87.6959 20.9807 86.7652 21.5196L22.26 55.5367C20.4148 56.5982 20.4375 58.3076 20.4375 60.4303L16.2901 66.4881L8.23977 61.818L8.22352 54.2086C8.20718 52.0858 9.70942 49.4895 11.571 48.4118L78.2262 9.94053C79.157 9.40164 80.006 9.35271 80.6102 9.69555L88.6442 14.382Z" fill="#91167C"/>
</g>
<g id="Group_17">
<path id="Vector_10" d="M86.2649 14.6095C88.1166 13.5404 89.6211 14.3978 89.6271 16.5255L89.6487 24.1296L16.285 66.4861L16.2634 58.882C16.2574 56.7543 17.7521 54.1654 19.6099 53.0928L86.2649 14.6095Z" fill="#A92D94"/>
</g>
</g>
</g>
<g id="Group_18">
<g id="Group_19">
<path id="Vector_11" d="M86.3727 34.5546L54.4729 52.9818V55.5368L86.3727 37.1225V34.5546Z" fill="#DEDFFB"/>
</g>
<g id="Group_20">
<path id="Vector_12" d="M86.3727 41.6879L54.4729 60.1151V62.6701L86.3727 44.2558V41.6879Z" fill="#DEDFFB"/>
</g>
<g id="Group_21">
<path id="Vector_13" d="M70.4374 72.5225L63.9534 76.268V78.8268L70.4374 75.0838V72.5225Z" fill="#78E75A"/>
<path id="Vector_14" d="M78.8492 67.6632L72.4104 71.3827V73.9456L78.8492 70.2282V67.6632Z" fill="#B28AFD"/>
<path id="Vector_15" d="M81.3025 66.246V68.8119L86.3725 65.8852V63.3173L81.3025 66.246Z" fill="#F45170"/>
</g>
<g id="Group_22">
<path id="Vector_16" d="M67.056 59.9796L54.4729 67.2484V69.8034L67.056 62.5397V59.9796Z" fill="#DEDFFB"/>
</g>
</g>
<g id="Group_23">
<path id="Vector_17" d="M64.1731 32.9723C64.183 34.7342 62.9487 36.8644 61.4158 37.7503L42.8905 48.7312C41.3675 49.6071 40.1333 48.9004 40.1233 47.1386C40.1233 46.2626 40.4319 45.2871 40.9296 44.4211C41.4273 43.565 42.1141 42.8185 42.8706 42.3706L61.4058 31.3897C62.9288 30.5137 64.1731 31.2204 64.1731 32.9723Z" fill="#1D2943"/>
</g>
</g>
<g id="Group_24">
<g id="Group_25">
<g id="Group_26">
<path id="Vector_18" d="M60.2077 35.6196L48.8831 42.2007C47.5612 42.9689 45.7447 42.8353 44.0088 41.833C43.9681 41.8095 43.9271 41.7854 43.8865 41.7609L55.1309 35.1072C55.1716 35.1317 55.2926 35.2284 55.3334 35.2519C57.0693 36.2541 58.8857 36.3878 60.2077 35.6196Z" fill="#F3F1FC"/>
</g>
<g id="Group_27">
<path id="Vector_19" d="M60.9805 37.0329L49.6559 43.614C49.9824 43.4243 50.2846 43.1871 50.5573 42.9025C51.9898 41.4153 52.5987 38.6733 52.2227 35.3804C51.8919 32.4737 50.8173 29.1317 49.0906 25.6493C47.1799 21.8127 45.7881 18.0159 44.9558 14.3652L56.2804 7.78406C57.1126 11.4348 58.5045 15.2316 60.4151 19.0682C62.1418 22.5505 63.2164 25.8925 63.5473 28.7993C63.9233 32.0922 63.3144 34.8342 61.8819 36.3214C61.6092 36.606 61.307 36.8432 60.9805 37.0329Z" fill="#E9E7FC"/>
</g>
<g id="Group_28">
<path id="Vector_20" d="M44.4128 11.9971L55.7374 5.41602L56.2805 7.78404L44.9559 14.3652L44.4128 11.9971Z" fill="#E9E7FC"/>
</g>
<g id="Group_29">
<path id="Vector_21" d="M43.3191 11.7495L54.6437 5.16833L55.7373 5.41603L44.4127 11.9972L43.3191 11.7495Z" fill="#F3F1FC"/>
</g>
<g id="Group_30">
<path id="Vector_22" d="M44.4127 11.9972L44.9558 14.3652C45.788 18.016 47.1799 21.8128 49.0905 25.6493C50.8172 29.1317 51.8918 32.4737 52.2227 35.3805C52.5987 38.6734 51.9898 41.4154 50.5573 42.9026C49.0165 44.5103 46.5347 44.6065 44.0469 43.1701C43.9802 43.1316 43.9136 43.0931 43.8469 43.0487L43.8865 41.761C43.9272 41.7855 43.9681 41.8096 44.0089 41.8332C46.1017 43.0415 48.3117 42.9873 49.631 41.6121C50.8935 40.2924 51.4296 37.8508 51.0937 34.9117C50.7878 32.2555 49.7998 29.1819 48.2315 26.0212C46.1982 21.9367 44.7401 17.9541 43.8621 14.1235L43.3191 11.7495L44.4127 11.9972Z" fill="#DEDFFB"/>
</g>
</g>
</g>
</g>
<g id="Group_31">
<path id="Vector_23" d="M50.3525 71.4521C50.3525 76.0569 48.7849 81.1352 46.2212 85.7073C44.5557 88.6792 42.4819 91.4225 40.1305 93.6597C39.069 94.6883 37.9423 95.6028 36.783 96.403C36.3421 96.6969 35.8849 96.9908 35.4277 97.252C34.9542 97.5297 34.4642 97.7745 34.0071 97.9868C32.8313 98.5421 31.6884 98.9176 30.6106 99.1135C28.2919 99.5545 26.2181 99.2115 24.5526 98.1502C22.0215 96.5499 20.454 93.3004 20.4376 88.7283C20.4049 79.2248 27.0836 67.6637 35.3297 62.8957C43.5922 58.1276 50.3198 61.9486 50.3525 71.4521Z" fill="#57B3FE"/>
</g>
<g id="Group_32">
<path id="Vector_24" d="M61.0656 78.8463C61.0656 80.7009 59.7595 82.9604 58.1399 83.9009C56.5334 84.8282 55.2142 84.0837 55.2012 82.229C55.2012 80.3613 56.5073 78.1018 58.1269 77.1614C59.7464 76.2341 61.0656 76.9786 61.0656 78.8463Z" fill="#FFD06C"/>
</g>
<path id="Vector_25" d="M43.8862 41.7659L43.8535 43.0558L42.8738 42.37L43.8862 41.7659Z" fill="#DEDFFB"/>
</g>
<g id="Group_33">
<g id="Group_34">
<g id="Group_35">
<path id="Vector_26" d="M31.8026 90.3122C31.0187 91.6022 30.3003 93.1208 29.1899 95.0803L30.9044 95.1945L29.043 97.5459L30.6105 99.1135C28.2918 99.5545 26.218 99.2115 24.5525 98.1502L25.0749 95.9947C25.4015 94.6557 26.3487 93.3167 27.4101 92.7126L31.9006 90.1162L31.8026 90.3122Z" fill="#E93565"/>
<path id="Vector_27" d="M40.1305 93.6597L41.7144 90.2306L39.8529 90.0183L41.5675 87.9446C40.4408 87.2587 39.7223 86.5729 38.9385 86.1973L38.7915 86.132L43.331 83.5194C44.3924 82.8988 45.3395 83.1438 45.6661 84.1072L46.2212 85.7074C44.5557 88.6793 42.4819 91.4226 40.1305 93.6597Z" fill="#E93565"/>
</g>
<g id="Group_36">
<path id="Vector_28" d="M41.7143 90.2306L40.1304 93.6597C39.069 94.6884 37.9423 95.6028 36.783 96.403L38.1872 88.5324C38.3179 87.8139 38.3016 87.1607 38.122 86.6545L38.0729 86.5565L38.7914 86.132L38.9384 86.1973C39.7222 86.5729 40.4407 87.2587 41.5674 87.9446L39.8528 90.0183L41.7143 90.2306Z" fill="#CC104A"/>
</g>
<g id="Group_37">
<path id="Vector_29" d="M38.1872 88.5324L36.7829 96.403C36.342 96.6969 35.8848 96.9908 35.4276 97.252C34.9541 97.5297 34.4641 97.7746 34.007 97.9869L32.5537 91.7818C32.423 91.2104 32.4393 90.5408 32.6027 89.8387L32.6516 89.6917L32.815 89.5937C33.1415 90.7204 34.1376 91.1123 35.2969 90.4428L35.4603 90.3612C36.6196 89.6917 37.5994 88.1567 37.9096 86.6381L38.0729 86.5565L38.1219 86.6545C38.3015 87.1607 38.3179 87.8139 38.1872 88.5324Z" fill="#E9E7FC"/>
</g>
<g id="Group_38">
<path id="Vector_30" d="M34.007 97.9868C32.8312 98.5421 31.6883 98.9176 30.6105 99.1136L29.043 97.5459L30.9044 95.1945L29.1899 95.0803C30.3002 93.1208 31.0187 91.6022 31.8026 90.3122L31.9006 90.1162L32.6516 89.6917L32.6027 89.8387C32.4393 90.5408 32.423 91.2103 32.5537 91.7818L34.007 97.9868Z" fill="#CC104A"/>
</g>
<g id="Group_39">
<path id="Vector_31" d="M32.696 87.2447C33.5097 87.293 34.4126 87.0609 35.3633 86.512C36.314 85.9631 37.2151 85.1538 38.026 84.1676L38.0301 85.6145C38.031 85.9495 37.9916 86.2957 37.9176 86.6427C37.5948 88.1569 36.6137 89.6854 35.4551 90.3543L35.2936 90.4476C34.1349 91.1166 33.1484 90.724 32.8181 89.5869C32.7424 89.3263 32.7011 89.0268 32.7001 88.6917L32.696 87.2447Z" fill="#F5C9C6"/>
</g>
<g id="Group_40">
<path id="Vector_32" d="M42.8083 73.6892C42.8083 74.7342 42.2531 75.9099 41.551 76.3672C40.7835 80.5964 38.3178 84.8092 35.3623 86.5075C32.4067 88.2221 29.9247 86.8667 29.1409 83.5356C28.4387 83.8948 27.8835 83.3559 27.8672 82.2946C27.8672 81.6578 28.0795 80.9556 28.4061 80.4167C28.6184 80.0412 28.8959 79.7309 29.1898 79.5677C29.5654 79.3554 29.892 79.388 30.137 79.6166C30.2676 78.7022 30.4145 77.7878 30.5452 76.8897C30.6105 76.3672 30.7084 75.7793 31.0187 75.2731C31.2962 74.7832 31.6555 74.4567 32.0474 74.2444C32.5536 73.9505 33.0925 73.8198 33.5334 73.6566C34.6274 73.2483 35.7215 72.7258 36.7992 72.0889C36.8482 72.0726 36.8809 72.0399 36.9298 72.0237C37.0931 71.9256 37.2564 71.8276 37.4196 71.7297C37.8279 71.5011 38.2361 71.2725 38.6443 71.1255C39.1996 70.9295 39.7548 70.9295 40.0651 71.3052C40.359 71.6317 40.4242 72.1706 40.4733 72.7095C40.5059 72.987 40.5386 73.2646 40.5549 73.5423C40.7998 73.0686 41.1264 72.6768 41.4857 72.4645C41.7632 72.3012 42.0245 72.2849 42.2531 72.3992C42.5797 72.5625 42.8083 73.0197 42.8083 73.6892Z" fill="#F4D6D4"/>
</g>
<g id="Group_41">
<path id="Vector_33" d="M33.2878 68.1203C33.5515 67.9681 33.8166 67.8327 34.0819 67.6991C35.0219 67.2494 35.9547 66.8714 36.873 66.5693C37.8134 66.263 38.7393 66.0326 39.585 66.0682C40.4307 66.0953 41.2036 66.3673 41.6908 67.0324C42.3109 67.849 42.4617 69.1899 42.4142 70.5862C42.3931 71.1756 42.3362 71.7803 42.246 72.396C42.0288 72.2893 41.7636 72.3053 41.4783 72.47C41.1223 72.6756 40.8 73.0707 40.5624 73.5471C40.5323 73.2692 40.5022 72.9913 40.4716 72.7133C40.4186 72.1777 40.3508 71.6254 40.0705 71.3056C39.7532 70.9311 39.2017 70.9368 38.6434 71.1324C38.2394 71.2752 37.8281 71.4997 37.4174 71.7368C37.253 71.8317 37.0889 71.9286 36.9252 72.023C36.8849 72.0466 36.8443 72.0702 36.804 72.0935C35.7137 72.7229 34.6236 73.2426 33.5399 73.6565C33.0904 73.8242 32.547 73.9522 32.0396 74.2451C31.6596 74.4645 31.3 74.7762 31.0149 75.2664C30.7148 75.786 30.6135 76.36 30.5415 76.8832C30.4077 77.7937 30.274 78.7028 30.1402 79.6117C29.898 79.3844 29.561 79.3505 29.1887 79.5654C28.893 79.7362 28.6196 80.0408 28.3995 80.4155C28.243 79.4189 28.1952 78.3387 28.2628 77.1933C28.3193 76.3749 28.4344 75.4888 28.7996 74.602C29.1386 73.7657 29.8938 72.9698 30.5593 72.5856C30.5962 72.5643 30.6326 72.5443 30.6688 72.5257C30.4322 72.0708 30.5623 71.2521 30.9205 70.5298C31.2788 69.816 31.8212 69.1987 32.3788 68.7415C32.6782 68.4961 32.982 68.2969 33.2878 68.1203Z" fill="#1D2943"/>
</g>
</g>
</g>
<g id="Group_42">
<g id="Group_43">
<g id="Group_44">
<g id="Group_45">
<g id="Group_46">
<g id="Group_47">
<g id="Group_48">
<path id="Vector_34" d="M104.264 52.5334C101.221 50.7504 99.957 55.1006 95.2737 57.8107C85.9783 63.1835 81.0959 71.6698 81.1197 82.3679C81.1435 87.6694 77.3998 91.8074 80.4191 93.5667L75.3077 90.595C72.2886 88.8357 70.4104 85.1033 70.4104 79.8018C70.3628 69.1037 77.8753 56.0994 87.1707 50.7266C91.8542 48.0165 96.1096 47.7787 99.1527 49.5617L104.264 52.5334Z" fill="#BBBEC6"/>
</g>
<g id="Group_49">
<path id="Vector_35" d="M92.2921 53.6959C101.593 48.3261 109.156 52.6395 109.187 63.3236C109.217 74.0109 101.703 87.0279 92.4018 92.3977C83.101 97.7675 75.5389 93.4549 75.5086 82.7676C75.4783 72.0835 82.9913 59.0657 92.2921 53.6959Z" fill="#9B9EA5"/>
</g>
</g>
</g>
<g id="Group_50">
<path id="Vector_36" d="M101.407 55.0439C104.161 56.4649 105.89 59.7121 105.903 64.4062C105.927 73.5067 99.5122 84.6165 91.5968 89.1875C88.1474 91.1794 84.9752 91.6031 82.491 90.6953C85.0754 92.0285 88.5628 91.7546 92.3944 89.542C100.31 84.9711 106.725 73.8612 106.701 64.7607C106.686 59.6273 104.623 56.2193 101.407 55.0439Z" fill="#BBBEC6"/>
<path id="Vector_37" d="M105.903 64.4062C105.905 64.9498 105.883 65.5 105.838 66.0567C105.155 74.8115 99.0377 84.8906 91.5963 89.1875C88.1475 91.1794 84.9748 91.6034 82.4915 90.6945C79.7363 89.2745 78.0075 86.0279 77.9945 81.333C77.9684 72.3803 84.1854 61.4727 91.9269 56.7735C92.0508 56.6974 92.1769 56.6235 92.3009 56.5517C94.171 55.4709 95.9585 54.8512 97.6003 54.6577C97.6242 54.6533 97.646 54.6511 97.6677 54.649C97.7677 54.6381 97.8678 54.6272 97.9656 54.6207C97.9743 54.6207 97.983 54.6207 97.9896 54.6185C98.6963 54.562 99.3748 54.5859 100.021 54.6881C100.064 54.6968 100.108 54.7033 100.151 54.7099C100.586 54.786 101.006 54.899 101.406 55.0447C104.161 56.4647 105.89 59.7113 105.903 64.4062Z" fill="white"/>
</g>
<g id="Group_51">
<g id="Group_52">
<path id="Vector_38" d="M91.907 57.8738C92.1625 57.7263 92.37 57.8462 92.3709 58.1397L92.3779 60.6189C92.3787 60.9125 92.1725 61.2696 91.9171 61.4171C91.6616 61.5646 91.4527 61.4471 91.4519 61.1536L91.4448 58.6744C91.444 58.3808 91.6516 58.0213 91.907 57.8738Z" fill="#4A4A4A"/>
</g>
<g id="Group_53">
<path id="Vector_39" d="M91.982 84.3217C92.2374 84.1742 92.445 84.2924 92.4458 84.586L92.4529 87.0668C92.4537 87.3603 92.2475 87.7175 91.992 87.8649C91.7366 88.0124 91.5276 87.895 91.5268 87.6014L91.5198 85.1206C91.5189 84.8271 91.7265 84.4691 91.982 84.3217Z" fill="#4A4A4A"/>
</g>
<g id="Group_54">
<path id="Vector_40" d="M81.5184 78.3588C81.7739 78.2113 81.9815 78.3312 81.9823 78.6247C81.9831 78.9183 81.7769 79.2754 81.5215 79.4229L79.3639 80.6686C79.1085 80.8161 78.8995 80.6986 78.8987 80.405C78.8979 80.1115 79.1054 79.752 79.3609 79.6045L81.5184 78.3588Z" fill="#4A4A4A"/>
</g>
<g id="Group_55">
<path id="Vector_41" d="M104.535 65.0701C104.791 64.9226 104.998 65.0425 104.999 65.336C105 65.6296 104.794 65.9867 104.538 66.1342L102.379 67.3807C102.124 67.5282 101.916 67.4099 101.915 67.1163C101.914 66.8228 102.121 66.4641 102.376 66.3166L104.535 65.0701Z" fill="#4A4A4A"/>
</g>
<g id="Group_56">
<path id="Vector_42" d="M83.0187 67.2489C83.1372 67.1805 83.2557 67.164 83.3463 67.2156L84.8771 68.0895C85.0581 68.1927 85.0591 68.5293 84.8792 68.8409C84.7892 68.9967 84.671 69.1169 84.5527 69.1853C84.4343 69.2536 84.3158 69.2701 84.2253 69.2185L82.6931 68.3469C82.512 68.2437 82.511 67.9071 82.6909 67.5939C82.7816 67.4377 82.9001 67.3173 83.0187 67.2489Z" fill="#4A4A4A"/>
</g>
<g id="Group_57">
<path id="Vector_43" d="M99.3464 76.5538C99.4647 76.4855 99.5833 76.4694 99.6738 76.5218L101.205 77.3941C101.386 77.4973 101.387 77.8339 101.207 78.1455C101.117 78.3013 100.999 78.4215 100.88 78.4899C100.762 78.5582 100.643 78.5747 100.553 78.5231L99.022 77.6507C98.8395 77.5483 98.8386 77.2117 99.0199 76.8993C99.1098 76.7427 99.228 76.6221 99.3464 76.5538Z" fill="#4A4A4A"/>
</g>
<g id="Group_58">
<path id="Vector_44" d="M84.5976 85.0691C84.7159 85.0007 84.8344 84.9846 84.925 85.037C85.1061 85.1402 85.107 85.4768 84.9271 85.7884L83.4063 88.4227C83.3163 88.5785 83.1981 88.6987 83.0796 88.7671C82.961 88.8355 82.8422 88.8522 82.7509 88.801C82.5699 88.6978 82.5689 88.3612 82.7488 88.0496L84.271 85.4146C84.361 85.258 84.4792 85.1374 84.5976 85.0691Z" fill="#4A4A4A"/>
</g>
<g id="Group_59">
<path id="Vector_45" d="M100.819 56.9717C100.938 56.9034 101.056 56.8869 101.147 56.9385C101.328 57.0433 101.329 57.3799 101.149 57.6915L99.6278 60.3257C99.5379 60.4815 99.4197 60.6017 99.3013 60.67C99.1829 60.7384 99.0644 60.7549 98.9739 60.7033C98.7914 60.6009 98.7905 60.2643 98.9718 59.9519L100.493 57.316C100.583 57.1602 100.701 57.04 100.819 56.9717Z" fill="#4A4A4A"/>
</g>
</g>
</g>
</g>
</g>
<g id="Group_60">
<path id="Vector_46" d="M92.0934 64.848C92.3517 64.6988 92.5608 64.818 92.5616 65.1053L92.5807 71.8667L99.8568 67.6658C100.115 67.5166 100.324 67.6358 100.325 67.9326C100.326 68.22 100.118 68.5797 99.8598 68.7289L92.1171 73.1992C92.0003 73.2666 91.8752 73.2812 91.7916 73.2336C91.708 73.1859 91.6575 73.0712 91.6572 72.9371L91.6365 65.6394C91.6357 65.3521 91.8433 64.9924 92.0934 64.848Z" fill="#FF5230"/>
</g>
<g id="Group_61">
<path id="Vector_47" d="M92.3428 70.8801C93.1293 70.426 93.7689 70.7908 93.7715 71.6942C93.774 72.598 93.1386 73.6987 92.3521 74.1528C91.5656 74.6069 90.9262 74.2422 90.9236 73.3385C90.921 72.435 91.5563 71.3342 92.3428 70.8801Z" fill="#FF5230"/>
</g>
</g>
</g>
</g>
</svg>
