<svg width="24" height="24" viewBox="0 0 24 24" fill="none" xmlns="http://www.w3.org/2000/svg">
<g id="vuesax/linear/note">
<g id="note">
<path id="Vector" d="M14.8062 18.6563C14.2168 19.0556 13.4754 19.3883 12.5723 19.683L11.0704 20.1773C7.29668 21.394 5.30999 20.3769 4.08375 16.6031L2.86702 12.8484C1.65029 9.07459 2.6579 7.0784 6.43166 5.86167L7.93356 5.36737C8.3233 5.2438 8.69402 5.13923 9.04573 5.07269C8.76056 5.65254 8.53242 6.35596 8.34231 7.16395L7.41075 11.1468C6.47919 15.1202 7.70543 17.0784 11.6693 18.0195L13.2663 18.3997C13.8176 18.5328 14.3309 18.6183 14.8062 18.6563Z" stroke="#2C3B84" stroke-width="1.42586" stroke-linecap="round" stroke-linejoin="round"/>
<path id="Vector_2" d="M21.08 10.1488L20.1484 14.1222C19.3499 17.5537 17.772 18.9416 14.8062 18.6564C14.3309 18.6184 13.8176 18.5328 13.2663 18.3998L11.6693 18.0195C7.70546 17.0785 6.47922 15.1203 7.41078 11.1469L8.34234 7.16401C8.53246 6.35603 8.76059 5.65261 9.04576 5.07276C10.1579 2.77238 12.0496 2.15451 15.2245 2.90546L16.8119 3.27618C20.7948 4.20774 22.0115 6.17542 21.08 10.1488Z" fill="#A92D94" stroke="#A92D94" stroke-width="1.42586" stroke-linecap="round" stroke-linejoin="round"/>
</g>
</g>
</svg>
