<svg width="24" height="24" viewBox="0 0 24 24" fill="none" xmlns="http://www.w3.org/2000/svg">
<g id="vuesax/linear/slider-horizontal">
<g id="slider-horizontal">
<path id="Vector" d="M5.26611 15.9092V7.35411C5.26611 6.76476 5.28512 6.24194 5.35166 5.77616C5.62733 3.27616 6.80604 2.60126 10.019 2.60126H13.8212C17.0342 2.60126 18.2129 3.27616 18.4885 5.77616C18.5551 6.24194 18.5741 6.76476 18.5741 7.35411V15.9092C18.5741 16.4986 18.5551 17.0214 18.4885 17.4872C18.2129 19.9872 17.0342 20.6621 13.8212 20.6621H10.019C6.80604 20.6621 5.62733 19.9872 5.35166 17.4872C5.28512 17.0214 5.26611 16.4986 5.26611 15.9092Z" fill="#A92D94" stroke="#A92D94" stroke-width="1.42586" stroke-linecap="round" stroke-linejoin="round"/>
<path id="Vector_2" d="M2.41455 18.7609V4.50238" stroke="#2C3B84" stroke-width="1.42586" stroke-linecap="round" stroke-linejoin="round"/>
<path id="Vector_3" d="M21.4258 18.2857V4.0271" stroke="#2C3B84" stroke-width="1.42586" stroke-linecap="round" stroke-linejoin="round"/>
</g>
</g>
</svg>
