<svg width="25" height="28" viewBox="0 0 25 28" fill="none" xmlns="http://www.w3.org/2000/svg">
<path id="Union" opacity="0.99" fill-rule="evenodd" clip-rule="evenodd" d="M8.24195 5.99681L8.24194 5.99679L3.64468 7.91973C2.85813 8.2508 2.27047 8.93562 2.06705 9.76557L0.0690302 17.87C-0.0801435 18.4777 0.0147851 19.1217 0.331214 19.6614L1.48392 21.6297C1.71898 22.0379 2.05349 22.3735 2.45581 22.6184L8.24188 26.1286L8.2419 26.1287L11.135 27.7297C11.6819 28.0335 12.3419 28.0381 12.8934 27.7478L22.3637 22.4915C22.9965 22.1423 23.4441 21.5345 23.5977 20.8225L23.7324 20.2057H23.7334L24.8589 15.5526C24.9358 15.2306 24.9358 14.895 24.8589 14.573L23.756 10.0105C23.7424 9.95155 23.7243 9.88806 23.7062 9.8291L22.5309 6.35511C22.3592 5.84263 21.9885 5.41632 21.5003 5.17595L11.135 0.0420727C10.8185 -0.112125 10.4705 0.182665 10.5744 0.518272L11.5328 3.69293C11.6729 4.16006 11.4378 4.6544 10.9903 4.84488L8.24195 5.99681ZM8.96649 8.48969L11.3776 16.7856L11.3793 16.7845L8.96649 8.48969ZM8.23153 26.0966L6.58291 20.9858C6.57801 20.9709 6.57345 20.956 6.56922 20.941C6.57848 20.9879 6.59056 21.0346 6.60555 21.081L8.23153 26.0966Z" fill="#AD2685"/>
</svg>
